<svg width="180" height="180" viewBox="0 0 180 180" fill="none" xmlns="http://www.w3.org/2000/svg">
  <rect width="180" height="180" rx="44" fill="#F5E6CF"/>
  <rect x="18" y="18" width="144" height="144" rx="34" fill="#8C3C27"/>
  <rect x="28" y="28" width="124" height="124" rx="28" fill="#F8ECDD"/>
  <path d="M52 121V59H88C103.95 59 114 67.84 114 80.96C114 90.76 108.84 97.44 99.88 100.48L116.48 121H101.44L87.32 103.84H64.4V121H52ZM64.4 92.44H86.76C95.12 92.44 100.2 88.48 100.2 81.88C100.2 75.16 95.12 71.2 86.76 71.2H64.4V92.44Z" fill="#8C3C27"/>
  <path d="M119 66L127.2 82.12L145 84.68L132 97.08L135.04 114.72L119 106.24L102.96 114.72L106 97.08L93 84.68L110.8 82.12L119 66Z" fill="#D28B27"/>
</svg>
